# xmcd
#
# Track frame offsets: 
#        150
#        16395
#        36892
#
# Disc length: 726 seconds
#
# Revision: 1
# Processed by: cddbd v1.5.2PL0 Copyright (c) Steve Scherf et al.
# Submitted via: ExactAudioCopy v1.3
#
DISCID=1b02d403
DTITLE=林明禎 - 冒險愉快
DYEAR=2015
DGENRE=Chinese Pop
TTITLE0=冒險愉快
TTITLE1=不佔有
TTITLE2=約愛麗絲下午茶
EXTD=
EXTT0=
EXTT1=
EXTT2=
PLAYORDER=
